<svg version="1.2" xmlns="http://www.w3.org/2000/svg" viewBox="0 0 269 226" width="269" height="226">
	<title>Home-bg-svg</title>
	<style>
		.s0 { fill: #000000 } 
	</style>
	<g id="_x37_30_x2C__management_x2C__process_x2C__production_x2C__task_x2C__work">
		<g id="Layer">
			<path id="Layer" fill-rule="evenodd" class="s0" d="m43.9 106.5l25.2-3.8c0.7-4.8 2-9.4 3.7-13.7l-19.9-15.9 6.5-11.3 23.7 9.3c3-3.7 6.3-7 10-10l-9.3-23.7 11.3-6.6 15.9 20c4.3-1.7 8.9-3 13.7-3.7l3.8-25.2h13l3.8 25.2c4.8 0.7 9.3 2 13.7 3.7l15.9-20 11.3 6.6-9.3 23.7c3.7 3 7 6.3 10 10l23.7-9.3 6.5 11.3-19.9 15.9c1.7 4.3 3 8.9 3.7 13.7l25.2 3.8v13l-25.2 3.8c-0.7 4.8-2 9.4-3.7 13.7l19.9 15.9-6.5 11.3-23.7-9.3c-3 3.7-6.3 7-10 10l9.3 23.7-11.3 6.6-15.9-20c-4.4 1.7-8.9 3-13.7 3.7l-3.8 25.2h-13l-3.8-25.2c-4.8-0.7-9.4-2-13.7-3.7l-15.9 20-11.3-6.6 9.3-23.7c-3.7-3-7-6.3-10-10l-23.7 9.3-6.5-11.3 19.9-15.9c-1.7-4.3-3-8.9-3.7-13.7l-25.2-3.8zm40.5 6.6c0-2.6-2-4.7-4.6-4.7-2.6 0-4.7 2.1-4.7 4.7 0 2.6 2.1 4.6 4.7 4.6 2.6 0 4.6-2 4.6-4.6zm5.1 31.6c2.2-1.3 3-4.1 1.7-6.3-1.3-2.3-4.1-3-6.3-1.7-2.3 1.2-3 4.1-1.7 6.3 1.2 2.2 4.1 3 6.3 1.7zm21.9 18.5c1.3-2.2 0.5-5-1.7-6.3-2.2-1.3-5.1-0.6-6.3 1.7-1.3 2.2-0.6 5 1.7 6.3 2.2 1.3 5 0.5 6.3-1.7zm28.2 5.1c0-2.6-2-4.7-4.6-4.7-2.6 0-4.7 2.1-4.7 4.7 0 2.6 2.1 4.6 4.7 4.6 2.6 0 4.6-2 4.6-4.6zm27-9.7c-1.3-2.3-4.1-3-6.3-1.7-2.3 1.3-3 4.1-1.7 6.3 1.3 2.2 4.1 3 6.3 1.7 2.2-1.3 3-4.1 1.7-6.3zm18.5-21.9c-2.2-1.3-5-0.6-6.3 1.7-1.3 2.2-0.5 5 1.7 6.3 2.2 1.3 5 0.5 6.3-1.7 1.3-2.2 0.6-5.1-1.7-6.3zm9.7-23.6c0-2.6-2-4.7-4.6-4.7-2.6 0-4.7 2.1-4.7 4.7 0 2.6 2.1 4.6 4.7 4.6 2.6 0 4.6-2 4.6-4.6zm-14.3-31.7c-2.2 1.3-3 4.2-1.7 6.4 1.3 2.2 4.1 3 6.3 1.7 2.3-1.3 3-4.1 1.7-6.3-1.3-2.3-4.1-3-6.3-1.8zm-21.9-18.5c-1.3 2.3-0.6 5.1 1.7 6.4 2.2 1.3 5 0.5 6.3-1.7 1.3-2.2 0.5-5.1-1.7-6.3-2.2-1.3-5-0.6-6.3 1.6zm-19-5c0-2.6-2-4.7-4.6-4.7-2.6 0-4.7 2.1-4.7 4.7 0 2.6 2.1 4.6 4.7 4.6 2.6 0 4.6-2 4.6-4.6zm-36.2 9.7c1.2 2.2 4.1 3 6.3 1.7 2.2-1.3 3-4.1 1.7-6.4-1.3-2.2-4.1-2.9-6.3-1.6-2.3 1.2-3 4.1-1.7 6.3zm-18.5 21.9c2.2 1.3 5 0.5 6.3-1.7 1.3-2.2 0.5-5.1-1.7-6.4-2.2-1.2-5.1-0.5-6.3 1.8-1.3 2.2-0.6 5 1.7 6.3zm92.4 23.6c0-23.4-18.9-42.3-42.3-42.3-23.4 0-42.3 18.9-42.3 42.3 0 23.4 18.9 42.3 42.3 42.3 23.4 0 42.3-18.9 42.3-42.3zm-31.6 25.9l-16 8.7c-0.7 0.3-1.6 0.1-2-0.7-0.2-0.3-0.2-0.8-0.1-1.1l1.7-6.3c-7.7-2.5-13.8-7.8-17.6-14.4-3.9-6.9-5.2-15.4-2.9-23.7 0.2-0.9 1-1.3 1.8-1.1 0.8 0.2 1.3 1 1.1 1.8-2.1 7.6-0.9 15.3 2.7 21.6 3.3 5.9 8.8 10.6 15.7 12.9l1.2-4.5c-5.6-1.9-10.2-5.8-12.9-10.7-3.1-5.3-4-11.7-2.3-18 0.2-0.8 1-1.3 1.8-1.1 0.8 0.2 1.3 1.1 1.1 1.9-1.5 5.5-0.6 11.1 2 15.7 2.4 4.2 6.3 7.6 11.1 9.3l2.2-7.7c0.2-0.8 1-1.3 1.8-1.1 0.4 0.1 0.7 0.4 0.9 0.7l9.3 15.7c0.4 0.7 0.2 1.6-0.5 2zm-22.6 71.5c2.2 0.4 1.4 3.3-0.3 3l-3.1-0.4c-2-0.4-1.4-3.4 0.5-3zm-11.7-2.2c1.8 0.4 1.4 3.4-0.8 3l-2.9-0.8c-1.7-0.3-1.4-3.4 0.8-2.9zm-11.4-3.6c0.8 0.3 1.2 1.2 0.9 2-0.3 0.7-1.2 1.2-1.9 0.9q-1.5-0.6-2.9-1.2c-1.8-0.7-0.7-3.5 1.2-2.8q1.3 0.6 2.7 1.1zm-10.8-4.9c1.8 1.1 0.2 3.7-1.4 2.7q-1.4-0.7-2.7-1.5c-1.2-0.7-0.9-2.5 0.5-2.8 0.3-0.1 0.7 0 1 0.2q1.3 0.7 2.6 1.4zm-10.2-6.2c1.6 1.2 0.1 3.6-1.7 2.5-0.8-0.6-1.7-1.2-2.5-1.8-1.6-1.2 0.2-3.6 1.8-2.4zm-9.3-7.4c1.5 1.6-0.8 3.5-2 2.3l-2.3-2.1c-1.5-1.5 0.8-3.5 2.1-2.2zm-8.4-8.5c1.3 1.3-0.7 3.6-2.2 2q-1.1-1.1-2-2.3c-1.2-1.5 0.8-3.4 2.3-1.9zm-7.3-9.4c1 1.8-1.3 3.3-2.5 1.7-0.6-0.8-1.2-1.7-1.7-2.5-0.5-0.9-0.2-1.7 0.5-2.2 0.7-0.4 1.6-0.2 2 0.5zm-6.1-10.2c0.9 1.5-1.5 3.3-2.7 1.4q-0.7-1.4-1.3-2.7c-0.9-2.1 2-3 2.7-1.3 0.4 0.8 0.9 1.7 1.3 2.6zm-4.8-10.9c0.7 1.8-2.1 3-2.9 1.1l-1-2.9c-0.7-1.7 2.1-3 2.9-1zm-3.5-11.3c0.4 2-2.6 2.5-2.9 0.7-0.3-1-0.5-2-0.7-3-0.4-2 2.6-2.6 3-0.6zm-2.1-11.8c0.3 1.7-2.5 2.6-3 0.4q-0.2-1.6-0.3-3.2c0-2.1 3-1.8 3-0.1zm94.4 89.8c-1.9 0-2-3 0.1-3l3 0.1c1.1 0 1.8 1.1 1.3 2.1-0.2 0.5-0.8 0.9-1.3 0.9zm14.9-198.4c-1.8-0.4-1.7-2.7-0.1-3 0.1 0 0.4 0 0.5 0l3 0.4c2.1 0.4 1.4 3.4-0.4 3zm11.7 2.1c-1.8-0.3-1.4-3.3 0.7-2.9l2.9 0.8c1.7 0.3 1.5 3.3-0.8 2.9zm11.4 3.5c-0.8-0.3-1.2-1.1-0.9-2 0.3-0.7 1.2-1.1 2-0.8q1.4 0.5 2.8 1.1c1.8 0.8 0.8 3.6-1.1 2.8q-1.4-0.6-2.8-1.1zm10.8 4.9c-1.7-1-0.2-3.6 1.4-2.6 1 0.4 1.9 0.9 2.8 1.5 1.6 1 0.1 3.6-1.6 2.6q-1.2-0.8-2.6-1.5zm10.2 6.2c-1.6-1.1-0.1-3.5 1.7-2.5 0.8 0.6 1.7 1.2 2.5 1.8 1.6 1.2-0.2 3.6-1.8 2.5zm9.3 7.3c-1.5-1.5 0.8-3.5 2.1-2.2l2.2 2.1c1.5 1.4-0.7 3.5-2.1 2.1zm8.4 8.5c-1.2-1.3 0.7-3.6 2.3-2q1 1.1 2 2.3c1.1 1.6-0.9 3.4-2.3 1.9zm7.3 9.4c-1.1-1.7 1.3-3.2 2.4-1.7 0.6 0.8 1.2 1.8 1.8 2.6 1 1.7-1.6 3.2-2.6 1.6zm6.1 10.2c-0.9-1.5 1.6-3.3 2.7-1.4q0.7 1.4 1.4 2.8c0.8 2-2.1 2.9-2.7 1.3-0.5-0.9-0.9-1.8-1.4-2.7zm4.9 10.9c-0.8-1.8 2-3 2.8-1.1l1 2.9c0.7 1.7-2 3-2.8 1zm3.4 11.4c-0.4-2.1 2.6-2.5 3-0.7 0.2 1 0.4 2 0.6 3 0.4 2-2.6 2.5-2.9 0.6zm2 11.7c-0.3-1.6 2.6-2.6 3-0.3 0.1 1 0.3 2.1 0.3 3.1 0 2.2-3 1.9-3 0.2zm-94.4-89.9c1.9 0 2 3-0.1 3h-2.9c-1.1 0-1.9-1.2-1.4-2.2 0.2-0.5 0.8-0.8 1.4-0.8zm-13.8 75.1l15.9-8.7c0.8-0.3 1.7-0.1 2.1 0.6 0.2 0.4 0.2 0.8 0.1 1.2l-1.7 6.3c7.7 2.5 13.8 7.8 17.5 14.4 4 6.9 5.3 15.4 3 23.7-0.2 0.8-1 1.3-1.8 1.1-0.8-0.2-1.3-1-1.1-1.9 2.1-7.5 0.9-15.2-2.7-21.5-3.3-5.9-8.8-10.6-15.7-12.9l-1.3 4.5c5.7 1.9 10.3 5.8 13 10.7 3 5.3 4 11.7 2.3 18-0.2 0.8-1.1 1.3-1.9 1.1-0.8-0.2-1.2-1.1-1-1.9 1.5-5.5 0.6-11.1-2-15.7-2.4-4.2-6.3-7.6-11.2-9.3l-2.1 7.7c-0.2 0.8-1 1.3-1.8 1.1-0.4-0.1-0.7-0.4-0.9-0.7l-9.3-15.7c-0.4-0.7-0.2-1.6 0.5-2z"/>
		</g>
	</g>
	<g id="Layer_1">
	</g>
</svg>